<svg width="43" height="43" viewBox="0 0 43 43" fill="none" xmlns="http://www.w3.org/2000/svg">
<path d="M36.375 6.25L42.625 0V18.75H23.875L32.5 10.125C29.3333 6.95833 25.5833 5.375 21.25 5.375C16.8333 5.375 13.0417 6.95833 9.875 10.125C6.79167 13.2083 5.25 16.9583 5.25 21.375C5.25 25.7917 6.79167 29.5833 9.875 32.75C13.0417 35.8333 16.8333 37.375 21.25 37.375C24.3333 37.375 27.3333 36.3333 30.25 34.25C33.25 32.1667 35.2917 29.6667 36.375 26.75H41.875C40.7083 31.4167 38.2083 35.25 34.375 38.25C30.5417 41.25 26.1667 42.75 21.25 42.75C15.4167 42.75 10.4167 40.6667 6.25 36.5C2.08333 32.3333 0 27.2917 0 21.375C0 15.4583 2.08333 10.4167 6.25 6.25C10.4167 2.08333 15.4167 0 21.25 0C23.75 0 26.4583 0.625 29.375 1.875C32.375 3.04167 34.7083 4.5 36.375 6.25Z" fill="#61BB61"/>
</svg>
